<svg width="87" height="88" viewBox="0 0 87 88" fill="none" xmlns="http://www.w3.org/2000/svg">
<path d="M71.9999 20.5C69.9999 17.3333 67.6999 10.2 74.4999 7C78.9576 4.90227 80.6507 3.54942 81.1003 2.7724C81.0525 2.49938 81.0185 2.24027 81 2C81.2296 2.11482 81.3366 2.36411 81.1003 2.7724C81.4838 4.96145 82.7536 8.04588 84 9.5C87 13 84.0001 21 78 22.5C73.1999 23.7 71.9999 21.6667 71.9999 20.5Z" fill="#FFBD36"/>
<path d="M71.9999 20.5C69.9999 17.3333 67.6999 10.2 74.4999 7C81.2999 3.8 81.6666 2.33333 81 2C81.1667 4.16667 82.5982 7.86451 84 9.5C87 13 84.0001 21 78 22.5C73.1999 23.7 71.9999 21.6667 71.9999 20.5Z" stroke="black" stroke-width="3" stroke-linejoin="round"/>
<path d="M63.5 48.5L69.5 26.5L66 25.5L68 19.5L81.5 23.5L79.5 29.5L76.5 28.5L69.5 51.5L63.5 48.5Z" fill="#FE5B38"/>
<path d="M69.5 26.5L63.5 48.5L69.5 51.5L76.5 28.5M69.5 26.5L76.5 28.5M69.5 26.5L66 25.5L68 19.5L81.5 23.5L79.5 29.5L76.5 28.5" stroke="black" stroke-width="3" stroke-linejoin="round"/>
<path d="M3.49972 29.9999C17.6773 -21.0416 77.9997 10.9997 55.9997 34.9998C52.3331 38.9997 53.7723 45.4374 63.4997 48.4998C86.9997 55.8979 72.4999 84.5 45.9999 86C19.4998 86 -4 57 3.49972 29.9999Z" fill="#D39BC2" stroke="black" stroke-width="3"/>
<circle cx="28" cy="20" r="6.5" fill="#FE5B38" stroke="black" stroke-width="3"/>
<circle cx="20" cy="40" r="6.5" fill="#FFBD36" stroke="black" stroke-width="3"/>
<circle cx="27" cy="60" r="6.5" fill="#0CCF83" stroke="black" stroke-width="3"/>
<circle cx="47" cy="68" r="6.5" fill="#31B9F5" stroke="black" stroke-width="3"/>
</svg>
