<svg width="92" height="84" viewBox="0 0 92 84" fill="none" xmlns="http://www.w3.org/2000/svg">
<path d="M2 79V5C2 3.34315 3.34315 2 5 2H56.5C58.1569 2 59.5 3.34315 59.5 5V79C59.5 80.6569 58.1569 82 56.5 82H5C3.34315 82 2 80.6569 2 79Z" fill="white"/>
<path d="M13.5 16.5H50M13.5 32H50M13.5 49.5H50M13.5 64.5H50M59.5 5V79C59.5 80.6569 58.1569 82 56.5 82H5C3.34315 82 2 80.6569 2 79V5C2 3.34315 3.34315 2 5 2L56.5 2C58.1569 2 59.5 3.34315 59.5 5Z" stroke="black" stroke-width="3" stroke-linecap="round"/>
<path d="M39.5461 48.7289L50.5461 60.2289L35.9529 65.6357L30.5825 67.8095C30.2216 67.9555 29.872 67.5771 30.0461 67.2289L32.5461 62.2289L39.5461 48.7289Z" fill="#FFBD36"/>
<path d="M50.5461 60.2289L39.5461 48.7289L75.5461 12.7289L86.7961 23.9789L50.5461 60.2289Z" fill="#FE5B38"/>
<path d="M86.7961 23.9789L75.5461 12.7289C78.7016 9.57341 84.5376 8.88183 87.6222 12.1067C90.6114 15.2318 89.854 20.921 86.7961 23.9789Z" fill="#FFBD36"/>
<path d="M39.5461 48.7289L50.5461 60.2289M39.5461 48.7289L32.5461 62.2289M39.5461 48.7289L75.5461 12.7289M50.5461 60.2289L35.9529 65.6357M50.5461 60.2289L86.7961 23.9789M35.9529 65.6357L32.5461 62.2289M35.9529 65.6357L30.5825 67.8095C30.2216 67.9555 29.872 67.5771 30.0461 67.2289L32.5461 62.2289M75.5461 12.7289L86.7961 23.9789M75.5461 12.7289C78.7016 9.57341 84.5376 8.88183 87.6222 12.1067C90.6114 15.2318 89.854 20.921 86.7961 23.9789" stroke="black" stroke-width="3"/>
</svg>
