<svg width="87" height="103" viewBox="0 0 87 103" fill="none" xmlns="http://www.w3.org/2000/svg">
<path d="M43 101L2 76.5L43 52L85.5 76.5L43 101Z" fill="#4D82C6" stroke="black" stroke-width="3" stroke-linejoin="round"/>
<path d="M43.5 92.5L16.5 77V18L43.5 2L70 18V77L43.5 92.5Z" fill="#31B9F5"/>
<path d="M43.5 92.5L16.5 77V18M43.5 92.5L70 77V18M43.5 92.5V32.5M70 18L43.5 32.5M70 18L43.5 2L16.5 18M43.5 32.5L16.5 18" stroke="black" stroke-width="3" stroke-linejoin="round"/>
<path d="M21 36V27.5L27.5 31.5V40L21 36Z" fill="#FFBD36"/>
<path d="M32.5 42.5V34L39 38V46.5L32.5 42.5Z" fill="#FFBD36"/>
<path d="M21 53V44.5L27.5 48.5V57L21 53Z" fill="#FFBD36"/>
<path d="M32.5 59.5V51L39 55V63.5L32.5 59.5Z" fill="#FFBD36"/>
<path d="M21 70.5V62L27.5 66V74.5L21 70.5Z" fill="#FFBD36"/>
<path d="M32.5 77V68.5L39 72.5V81L32.5 77Z" fill="#FFBD36"/>
<path d="M66.5 36V27.5L60 31.5V40L66.5 36Z" fill="#FFBD36"/>
<path d="M55 42.5V34L48.5 38V46.5L55 42.5Z" fill="#FFBD36"/>
<path d="M66.5 53V44.5L60 48.5V57L66.5 53Z" fill="#FFBD36"/>
<path d="M55 59.5V51L48.5 55V63.5L55 59.5Z" fill="#FFBD36"/>
<path d="M66.5 70.5V62L60 66V74.5L66.5 70.5Z" fill="#FFBD36"/>
<path d="M55 77V68.5L48.5 72.5V81L55 77Z" fill="#FFBD36"/>
<path d="M21 36V27.5L27.5 31.5V40L21 36Z" stroke="black" stroke-width="3" stroke-linejoin="round"/>
<path d="M32.5 42.5V34L39 38V46.5L32.5 42.5Z" stroke="black" stroke-width="3" stroke-linejoin="round"/>
<path d="M21 53V44.5L27.5 48.5V57L21 53Z" stroke="black" stroke-width="3" stroke-linejoin="round"/>
<path d="M32.5 59.5V51L39 55V63.5L32.5 59.5Z" stroke="black" stroke-width="3" stroke-linejoin="round"/>
<path d="M21 70.5V62L27.5 66V74.5L21 70.5Z" stroke="black" stroke-width="3" stroke-linejoin="round"/>
<path d="M32.5 77V68.5L39 72.5V81L32.5 77Z" stroke="black" stroke-width="3" stroke-linejoin="round"/>
<path d="M66.5 36V27.5L60 31.5V40L66.5 36Z" stroke="black" stroke-width="3" stroke-linejoin="round"/>
<path d="M55 42.5V34L48.5 38V46.5L55 42.5Z" stroke="black" stroke-width="3" stroke-linejoin="round"/>
<path d="M66.5 53V44.5L60 48.5V57L66.5 53Z" stroke="black" stroke-width="3" stroke-linejoin="round"/>
<path d="M55 59.5V51L48.5 55V63.5L55 59.5Z" stroke="black" stroke-width="3" stroke-linejoin="round"/>
<path d="M66.5 70.5V62L60 66V74.5L66.5 70.5Z" stroke="black" stroke-width="3" stroke-linejoin="round"/>
<path d="M55 77V68.5L48.5 72.5V81L55 77Z" stroke="black" stroke-width="3" stroke-linejoin="round"/>
</svg>
