<svg width="217" height="93" viewBox="0 0 217 93" fill="none" xmlns="http://www.w3.org/2000/svg">
<path d="M192 90.5216C186.919 86.5025 178.814 80.0047 169.455 73.7246C155.908 82.7519 139.733 90.785 126.298 90.5216C97.9008 89.9648 97.9008 56 126.298 56C139.733 56 155.908 64.6342 169.455 73.7246C178.814 67.4882 186.919 60.7774 192 56V90.5216Z" fill="#D39BC2"/>
<path d="M192 90.5216C179.565 80.6848 149.015 56 126.298 56C97.9008 56 97.9008 89.9648 126.298 90.5216C149.015 90.967 179.565 67.6928 192 56V90.5216Z" stroke="black" stroke-width="3" stroke-linejoin="round"/>
<circle cx="118.363" cy="69.3632" r="3.3408" fill="black"/>
<path d="M97 35.1568C92.5616 31.6459 85.4816 25.9696 77.306 20.4836C65.4716 28.3694 51.3416 35.3869 39.6048 35.1568C14.7984 34.6704 14.7984 5 39.6048 5C51.3416 5 65.4716 12.5425 77.306 20.4836C85.4816 15.0357 92.5616 9.17339 97 5V35.1568Z" fill="#FE5B38"/>
<path d="M97 35.1568C86.1371 26.5637 59.4499 5 39.6048 5C14.7984 5 14.7984 34.6704 39.6048 35.1568C59.4499 35.5459 86.1371 15.2144 97 5V35.1568Z" stroke="black" stroke-width="3" stroke-linejoin="round"/>
<circle cx="32.6738" cy="16.6736" r="2.9184" fill="black"/>
<path d="M215 25.4112C211.554 22.6856 206.058 18.279 199.711 14.0202C190.524 20.1421 179.555 25.5899 170.443 25.4112C151.186 25.0336 151.186 2 170.443 2C179.555 2 190.524 7.85538 199.711 14.0202C206.058 9.79088 211.554 5.23987 215 2V25.4112Z" fill="#FFBD36"/>
<path d="M215 25.4112C206.567 18.7403 185.849 2 170.443 2C151.186 2 151.186 25.0336 170.443 25.4112C185.849 25.7133 206.567 9.9296 215 2V25.4112Z" stroke="black" stroke-width="3" stroke-linejoin="round"/>
<circle cx="165.062" cy="11.0624" r="2.2656" fill="black"/>
<path d="M46 86.4592C43.4304 84.4265 39.3315 81.1403 34.5982 77.9642C27.7467 82.5297 19.5662 86.5924 12.7712 86.4592C-1.5904 86.1776 -1.5904 69 12.7712 69C19.5662 69 27.7467 73.3667 34.5982 77.9642C39.3315 74.8101 43.4304 71.4162 46 69V86.4592Z" fill="#FFBD36"/>
<path d="M46 86.4592C39.7109 81.4843 24.2605 69 12.7712 69C-1.5904 69 -1.5904 86.1776 12.7712 86.4592C24.2605 86.6845 39.7109 74.9136 46 69V86.4592Z" stroke="black" stroke-width="3" stroke-linejoin="round"/>
<circle cx="8.75845" cy="75.7584" r="1.6896" fill="black"/>
</svg>
