<svg width="99" height="99" viewBox="0 0 99 99" fill="none" xmlns="http://www.w3.org/2000/svg">
<circle cx="49.5" cy="49.5" r="48" fill="#FFBD36" stroke="black" stroke-width="3"/>
<path d="M32.6261 91.1427C31.9003 91.0815 31.2354 91.5505 31.0496 92.2548C30.8638 92.9591 31.2108 93.6951 31.8724 93.9998C36.68 96.2146 51.1036 99.9303 68.0397 93.3996C68.7316 93.1327 69.1247 92.4003 68.9646 91.6762C68.8046 90.9521 68.1394 90.4537 67.3994 90.5034C66.4814 90.5651 64.9791 90.5291 63.654 90.3224C62.9892 90.2187 62.4355 90.082 62.0445 89.9261C61.9841 89.902 61.9326 89.8795 61.8889 89.859V75.4999C61.8889 75.4277 61.8837 75.3556 61.8733 75.2842C61.6054 73.4399 61.1196 72.1291 60.3063 70.6369C69.6355 68.8739 75.4162 63.9153 77.8266 57.4011C80.3295 50.6369 79.0688 42.5363 74.9767 35.2542C75.3936 33.2515 75.5706 31.5284 75.4191 29.7368C75.2541 27.785 74.707 25.846 73.7888 23.4609C73.5324 22.795 72.8424 22.4019 72.1389 22.5208C67.6628 23.2776 64.9872 24.3112 60.5969 26.9258C52.2359 25.4751 47.2773 25.3291 39.1874 26.9111C37.3716 25.7604 35.7994 24.8524 34.0897 24.1497C32.2066 23.3757 30.2134 22.8732 27.5927 22.5138C26.9145 22.4207 26.2593 22.7987 26.0004 23.4325C25.0588 25.7369 24.5709 27.6304 24.4388 29.586C24.3185 31.3655 24.4984 33.1295 24.8215 35.1972C20.2751 42.9241 19.4734 51.4174 22.324 58.2628C25.0003 64.6896 30.813 69.4577 39.2702 70.7283C38.4851 72.0683 38.0922 73.1383 37.6678 74.4138C35.2616 75.4983 33.7594 75.7054 32.5643 75.3901C31.2614 75.0463 29.9444 73.9863 28.1111 71.628C27.0063 69.9504 25.3521 68.451 23.709 67.4259C22.8733 66.9046 21.9981 66.4792 21.1525 66.2189C20.3336 65.9668 19.4005 65.8258 18.5251 66.0446C17.8739 66.2075 17.0522 66.5641 16.6744 67.4141C16.2895 68.2802 16.626 69.0631 16.8365 69.4316C17.0677 69.836 17.3761 70.1567 17.5746 70.3452C17.6824 70.4476 17.7793 70.5311 17.851 70.5904C17.8872 70.6203 17.9178 70.6448 17.9411 70.6631L17.9708 70.6861L17.9814 70.6942L17.9856 70.6973L17.9873 70.6987L17.9882 70.6993C17.9886 70.6996 17.9889 70.6999 18.8889 69.4999L17.9889 70.6999C18.0215 70.7243 18.055 70.7473 18.0894 70.769C19.8196 71.859 22.636 74.3275 23.4381 77.381C23.769 78.6404 24.6112 79.8295 25.6342 80.8357C26.6764 81.8608 28.0044 82.7938 29.4736 83.5199C31.7909 84.6652 34.6348 85.3755 37.3889 84.9462V89.8926C37.2995 89.958 37.1843 90.0331 37.0382 90.115C36.6591 90.3273 36.1702 90.53 35.6203 90.7008C34.4921 91.0515 33.3271 91.2019 32.6261 91.1427Z" fill="#0CCF83" stroke="black" stroke-width="3" stroke-linejoin="round"/>
</svg>
