<svg width="199" height="94" viewBox="0 0 199 94" fill="none" xmlns="http://www.w3.org/2000/svg">
<path d="M142 82.0077C125.6 75.2077 62.5 68.1743 33 65.5077L63 29.5077C64.6667 24.841 71.4 16.2077 85 19.0077C98.6 21.8077 98 15.5076 106.5 5.00763C110.779 -0.277635 112.5 2.50766 114.5 5.00766C118.9 10.5077 119 21.8077 135 23.0077C151 24.2077 154.667 36.1743 154.5 42.0077C156.167 48.341 162 61.9077 172 65.5077C184.5 70.0077 191 77.5077 196 85.0077C200 91.0077 194.333 92.1743 191 92.0077C189.167 91.6743 182.8 90.4077 172 88.0077C158.5 85.0077 162.5 90.5077 142 82.0077Z" fill="#FE5B38" stroke="black" stroke-width="3" stroke-linejoin="round"/>
<path d="M116.5 65.5076C116.5 72.0189 110.667 78.3977 100.095 83.2355C89.6553 88.0131 75.1274 91.0076 59 91.0076C42.8726 91.0076 28.3447 88.0131 17.9049 83.2355C7.33323 78.3977 1.5 72.0189 1.5 65.5076C1.5 58.9963 7.33323 52.6176 17.9049 47.7797C28.3447 43.0022 42.8726 40.0076 59 40.0076C75.1274 40.0076 89.6553 43.0022 100.095 47.7797C110.667 52.6176 116.5 58.9963 116.5 65.5076Z" fill="#4D82C6" stroke="black" stroke-width="3"/>
<circle cx="26" cy="60.5076" r="6.5" fill="#D39BC2" stroke="black" stroke-width="3"/>
<circle cx="36" cy="66.5076" r="6.5" fill="#D39BC2" stroke="black" stroke-width="3"/>
<circle cx="46" cy="73.5076" r="6.5" fill="#D39BC2" stroke="black" stroke-width="3"/>
<circle cx="56" cy="79.5076" r="6.5" fill="#D39BC2" stroke="black" stroke-width="3"/>
<path d="M21.5 57.0076L4.5 44.0076" stroke="black" stroke-width="3" stroke-linejoin="round"/>
<circle cx="44.5" cy="52.0076" r="6.5" fill="#D39BC2" stroke="black" stroke-width="3"/>
<circle cx="54.5" cy="58.0076" r="6.5" fill="#D39BC2" stroke="black" stroke-width="3"/>
<circle cx="64.5" cy="65.0076" r="6.5" fill="#D39BC2" stroke="black" stroke-width="3"/>
<circle cx="74.5" cy="71.0076" r="6.5" fill="#D39BC2" stroke="black" stroke-width="3"/>
<path d="M40 48.5076L23 35.5076" stroke="black" stroke-width="3" stroke-linejoin="round"/>
<circle cx="65.5" cy="45.0076" r="6.5" fill="#D39BC2" stroke="black" stroke-width="3"/>
<circle cx="75.5" cy="51.0076" r="6.5" fill="#D39BC2" stroke="black" stroke-width="3"/>
<circle cx="85.5" cy="58.0076" r="6.5" fill="#D39BC2" stroke="black" stroke-width="3"/>
<circle cx="95.5" cy="64.0076" r="6.5" fill="#D39BC2" stroke="black" stroke-width="3"/>
<path d="M61 41.5076L44 28.5076" stroke="black" stroke-width="3" stroke-linejoin="round"/>
</svg>
