<svg width="77" height="76" viewBox="0 0 77 76" fill="none" xmlns="http://www.w3.org/2000/svg">
<mask id="path-1-outside-1_22_119" maskUnits="userSpaceOnUse" x="0" y="0" width="77" height="76" fill="black">
<rect fill="white" width="77" height="76"/>
<path d="M4.00563 73V25.384H18.1176V73H4.00563ZM11.0136 18.376C8.64563 18.376 6.72563 17.704 5.25363 16.36C3.78163 15.016 3.04563 13.224 3.04563 10.984C3.04563 8.744 3.78163 6.952 5.25363 5.608C6.72563 4.264 8.64563 3.592 11.0136 3.592C13.3816 3.592 15.3016 4.264 16.7736 5.608C18.2456 6.952 18.9816 8.744 18.9816 10.984C18.9816 13.224 18.2456 15.016 16.7736 16.36C15.3016 17.704 13.3816 18.376 11.0136 18.376ZM30.5369 73V25.384H42.0569L43.0169 31.432H43.4009C45.4489 29.512 47.6889 27.848 50.1209 26.44C52.6169 24.968 55.4649 24.232 58.6649 24.232C63.8489 24.232 67.5929 25.96 69.8969 29.416C72.2649 32.808 73.4489 37.48 73.4489 43.432V73H59.3369V45.256C59.3369 41.8 58.8569 39.432 57.8969 38.152C57.0009 36.872 55.5289 36.232 53.4809 36.232C51.6889 36.232 50.1529 36.648 48.8729 37.48C47.5929 38.248 46.1849 39.368 44.6489 40.84V73H30.5369Z"/>
</mask>
<path d="M4.00563 73V25.384H18.1176V73H4.00563ZM11.0136 18.376C8.64563 18.376 6.72563 17.704 5.25363 16.36C3.78163 15.016 3.04563 13.224 3.04563 10.984C3.04563 8.744 3.78163 6.952 5.25363 5.608C6.72563 4.264 8.64563 3.592 11.0136 3.592C13.3816 3.592 15.3016 4.264 16.7736 5.608C18.2456 6.952 18.9816 8.744 18.9816 10.984C18.9816 13.224 18.2456 15.016 16.7736 16.36C15.3016 17.704 13.3816 18.376 11.0136 18.376ZM30.5369 73V25.384H42.0569L43.0169 31.432H43.4009C45.4489 29.512 47.6889 27.848 50.1209 26.44C52.6169 24.968 55.4649 24.232 58.6649 24.232C63.8489 24.232 67.5929 25.96 69.8969 29.416C72.2649 32.808 73.4489 37.48 73.4489 43.432V73H59.3369V45.256C59.3369 41.8 58.8569 39.432 57.8969 38.152C57.0009 36.872 55.5289 36.232 53.4809 36.232C51.6889 36.232 50.1529 36.648 48.8729 37.48C47.5929 38.248 46.1849 39.368 44.6489 40.84V73H30.5369Z" fill="white"/>
<path d="M4.00563 73H1.00563V76H4.00563V73ZM4.00563 25.384V22.384H1.00563V25.384H4.00563ZM18.1176 25.384H21.1176V22.384H18.1176V25.384ZM18.1176 73V76H21.1176V73H18.1176ZM5.25363 16.36L7.27643 14.1445L7.27643 14.1445L5.25363 16.36ZM5.25363 5.608L7.27643 7.82346L7.27643 7.82345L5.25363 5.608ZM16.7736 5.608L14.7508 7.82345L14.7508 7.82346L16.7736 5.608ZM16.7736 16.36L14.7508 14.1445L14.7508 14.1445L16.7736 16.36ZM7.00563 73V25.384H1.00563V73H7.00563ZM4.00563 28.384H18.1176V22.384H4.00563V28.384ZM15.1176 25.384V73H21.1176V25.384H15.1176ZM18.1176 70H4.00563V76H18.1176V70ZM11.0136 15.376C9.24513 15.376 8.09466 14.8916 7.27643 14.1445L3.23082 18.5755C5.35659 20.5164 8.04612 21.376 11.0136 21.376V15.376ZM7.27643 14.1445C6.50751 13.4425 6.04563 12.4966 6.04563 10.984H0.0456253C0.0456253 13.9514 1.05574 16.5895 3.23082 18.5755L7.27643 14.1445ZM6.04563 10.984C6.04563 9.47135 6.50751 8.52551 7.27643 7.82346L3.23082 3.39254C1.05574 5.37848 0.0456253 8.01664 0.0456253 10.984H6.04563ZM7.27643 7.82345C8.09466 7.07638 9.24513 6.592 11.0136 6.592V0.591995C8.04612 0.591995 5.35659 1.45162 3.23082 3.39254L7.27643 7.82345ZM11.0136 6.592C12.7821 6.592 13.9326 7.07638 14.7508 7.82345L18.7964 3.39254C16.6707 1.45162 13.9811 0.591995 11.0136 0.591995V6.592ZM14.7508 7.82346C15.5197 8.52551 15.9816 9.47135 15.9816 10.984H21.9816C21.9816 8.01664 20.9715 5.37848 18.7964 3.39254L14.7508 7.82346ZM15.9816 10.984C15.9816 12.4966 15.5197 13.4425 14.7508 14.1445L18.7964 18.5755C20.9715 16.5895 21.9816 13.9514 21.9816 10.984H15.9816ZM14.7508 14.1445C13.9326 14.8916 12.7821 15.376 11.0136 15.376V21.376C13.9811 21.376 16.6707 20.5164 18.7964 18.5755L14.7508 14.1445ZM30.5369 73H27.5369V76H30.5369V73ZM30.5369 25.384V22.384H27.5369V25.384H30.5369ZM42.0569 25.384L45.0198 24.9137L44.6182 22.384H42.0569V25.384ZM43.0169 31.432L40.054 31.9023L40.4555 34.432H43.0169V31.432ZM43.4009 31.432V34.432H44.5872L45.4527 33.6206L43.4009 31.432ZM50.1209 26.44L51.624 29.0363L51.6344 29.0302L51.6448 29.0241L50.1209 26.44ZM69.8969 29.416L67.4007 31.0801L67.4186 31.1069L67.437 31.1333L69.8969 29.416ZM73.4489 73V76H76.4489V73H73.4489ZM59.3369 73H56.3369V76H59.3369V73ZM57.8969 38.152L55.4392 39.8724L55.4674 39.9127L55.4969 39.952L57.8969 38.152ZM48.8729 37.48L50.4164 40.0525L50.4626 40.0247L50.5078 39.9953L48.8729 37.48ZM44.6489 40.84L42.5732 38.674L41.6489 39.5598V40.84H44.6489ZM44.6489 73V76H47.6489V73H44.6489ZM33.5369 73V25.384H27.5369V73H33.5369ZM30.5369 28.384H42.0569V22.384H30.5369V28.384ZM39.094 25.8543L40.054 31.9023L45.9798 30.9617L45.0198 24.9137L39.094 25.8543ZM43.0169 34.432H43.4009V28.432H43.0169V34.432ZM45.4527 33.6206C47.3337 31.8571 49.3896 30.3299 51.624 29.0363L48.6178 23.8437C45.9881 25.3661 43.564 27.1669 41.3491 29.2434L45.4527 33.6206ZM51.6448 29.0241C53.632 27.8522 55.9434 27.232 58.6649 27.232V21.232C54.9863 21.232 51.6017 22.0838 48.5969 23.8559L51.6448 29.0241ZM58.6649 27.232C63.128 27.232 65.7933 28.669 67.4007 31.0801L72.393 27.7519C69.3924 23.251 64.5697 21.232 58.6649 21.232V27.232ZM67.437 31.1333C69.33 33.8448 70.4489 37.836 70.4489 43.432H76.4489C76.4489 37.124 75.1998 31.7712 72.3568 27.6987L67.437 31.1333ZM70.4489 43.432V73H76.4489V43.432H70.4489ZM73.4489 70H59.3369V76H73.4489V70ZM62.3369 73V45.256H56.3369V73H62.3369ZM62.3369 45.256C62.3369 43.4056 62.2098 41.736 61.9171 40.292C61.6297 38.8742 61.1452 37.4832 60.2969 36.352L55.4969 39.952C55.6085 40.1008 55.8441 40.5338 56.0367 41.484C56.224 42.408 56.3369 43.6504 56.3369 45.256H62.3369ZM60.3546 36.4316C58.7287 34.1089 56.1717 33.232 53.4809 33.232V39.232C54.8861 39.232 55.2731 39.6351 55.4392 39.8724L60.3546 36.4316ZM53.4809 33.232C51.2113 33.232 49.0841 33.7646 47.2379 34.9647L50.5078 39.9953C51.2216 39.5314 52.1665 39.232 53.4809 39.232V33.232ZM47.3294 34.9075C45.7954 35.8279 44.2086 37.1067 42.5732 38.674L46.7246 43.006C48.1611 41.6293 49.3904 40.6681 50.4164 40.0525L47.3294 34.9075ZM41.6489 40.84V73H47.6489V40.84H41.6489ZM44.6489 70H30.5369V76H44.6489V70Z" fill="black" mask="url(#path-1-outside-1_22_119)"/>
</svg>
