<svg width="100" height="76" viewBox="0 0 100 76" fill="none" xmlns="http://www.w3.org/2000/svg">
<path d="M98.5 74.5H1.5V62.5V32.5V17H7.5V9H18.5V17H24L32 2H66L75.5 17H98.5V32.5V62.5V74.5Z" fill="#FFF3EA"/>
<path d="M24 17L32 2H66L75.5 17M24 17H75.5M24 17H18.5M75.5 17H98.5V32.5M7.5 17H1.5V32.5M7.5 17V9H18.5V17M7.5 17H18.5M1.5 32.5H32M1.5 32.5V62.5M64 32.5H98.5M98.5 32.5V62.5M1.5 62.5V74.5H98.5V62.5M1.5 62.5H33M63 62.5H98.5M75.5 22V27.5H91V22H75.5Z" stroke="black" stroke-width="3"/>
<rect x="3" y="34" width="94" height="27" fill="#FE5B38"/>
<rect x="77" y="23" width="13" height="3" fill="#FE5B38"/>
<path d="M32.8945 3.5H65.1749L73 15.5H26.5L32.8945 3.5Z" fill="#FE5B38"/>
<circle cx="48" cy="47" r="21.5" fill="#FFBD36" stroke="black" stroke-width="3"/>
<circle cx="48" cy="47" r="16.5" fill="#FE5B38" stroke="black" stroke-width="3"/>
</svg>
