<svg width="89" height="210" viewBox="0 0 89 210" fill="none" xmlns="http://www.w3.org/2000/svg">
<path d="M32.5 88.5C13.8441 87.6146 6 77 2 52C30.5 58 39.1738 66.8122 32.5 88.5Z" fill="#0CCF83"/>
<path d="M32.5 143.5C13.8441 142.615 6 132 2 107C30.5 113 39.1738 121.812 32.5 143.5Z" fill="#0CCF83"/>
<path d="M56.5 52.5C75.1559 51.6146 83 41 87 16C58.5 22 49.8262 30.8122 56.5 52.5Z" fill="#0CCF83"/>
<path d="M56.5 107.5C75.1559 106.615 83 96 87 71C58.5 77 49.8262 85.8122 56.5 107.5Z" fill="#0CCF83"/>
<path d="M56.5002 162.5C75.1561 161.615 83.0002 151 87.0002 126C58.5002 132 49.8265 140.812 56.5002 162.5Z" fill="#0CCF83"/>
<path d="M33.5 38.5C14.8441 37.6146 7 27 3 2C31.5 8 40.1738 16.8122 33.5 38.5Z" fill="#0CCF83"/>
<path d="M42.0863 79L40.599 79.1942L42.0863 79ZM43.4333 177L41.9408 176.85L43.4333 177ZM2 52L2.30902 50.5322C1.82568 50.4304 1.32324 50.5731 0.965555 50.9138C0.607872 51.2544 0.440803 51.7493 0.518839 52.237L2 52ZM2 107L2.30902 105.532C1.82568 105.43 1.32324 105.573 0.965555 105.914C0.607872 106.254 0.440803 106.749 0.518839 107.237L2 107ZM87 16L88.4812 16.237C88.5592 15.7493 88.3921 15.2544 88.0344 14.9138C87.6768 14.5731 87.1743 14.4304 86.691 14.5322L87 16ZM87 71L88.4812 71.237C88.5592 70.7493 88.3921 70.2544 88.0344 69.9138C87.6768 69.5731 87.1743 69.4304 86.691 69.5322L87 71ZM87.0002 126L88.4814 126.237C88.5594 125.749 88.3924 125.254 88.0347 124.914C87.677 124.573 87.1745 124.43 86.6912 124.532L87.0002 126ZM3 2L3.30902 0.532175C2.82568 0.430421 2.32324 0.57313 1.96556 0.913757C1.60787 1.25438 1.4408 1.74926 1.51884 2.23699L3 2ZM43.5737 78.8058C42.4867 70.4784 41.3984 65.5142 40.0464 60.0216C38.7001 54.5522 37.1024 48.5955 34.9694 38.1985L32.0306 38.8015C34.1786 49.2717 35.7958 55.3049 37.1333 60.7386C38.4651 66.1491 39.5295 71.0013 40.599 79.1942L43.5737 78.8058ZM43.4745 79.5684C48.4042 67.5292 49.8766 62.6078 57.6429 53.4715L55.3571 51.5285C47.2297 61.0897 45.5958 66.4708 40.6982 78.4316L43.4745 79.5684ZM47.1866 131.066C51.8566 119.603 50.9503 119.437 57.7793 108.283L55.2207 106.717C48.2238 118.144 48.9926 118.681 44.4083 129.934L47.1866 131.066ZM47.2974 130.49C47.2708 126.503 47.1806 122.496 47.0239 118.442L44.0261 118.558C44.1816 122.579 44.2711 126.555 44.2975 130.51L47.2974 130.49ZM47.0239 118.442C46.539 105.902 45.4174 92.9295 43.5737 78.8058L40.599 79.1942C42.4321 93.2374 43.5451 106.118 44.0261 118.558L47.0239 118.442ZM46.9617 118.069C42.9878 104.833 40.3189 97.8125 33.759 87.6845L31.241 89.3155C37.5845 99.1093 40.1548 105.83 44.0884 118.931L46.9617 118.069ZM40.9854 209.208C42.577 197.868 43.9047 187.297 44.9257 177.15L41.9408 176.85C40.9248 186.946 39.6025 197.477 38.0146 208.792L40.9854 209.208ZM44.5668 177.982C50.0594 171.644 49.7338 169.757 57.4301 163.677L55.5704 161.323C47.6232 167.601 47.2359 170.322 42.2997 176.018L44.5668 177.982ZM44.9257 177.15C45.3182 173.25 45.6653 169.413 45.9647 165.618L42.974 165.382C42.6764 169.154 42.3313 172.97 41.9408 176.85L44.9257 177.15ZM45.9647 165.618C46.906 153.688 47.3753 142.183 47.2974 130.49L44.2975 130.51C44.3748 142.107 43.9094 153.526 42.974 165.382L45.9647 165.618ZM45.8987 165.045C42.4933 154.344 39.7322 149.425 33.6244 142.507L31.3756 144.493C37.1691 151.055 39.7421 155.592 43.04 165.955L45.8987 165.045ZM32.5711 87.0017C23.5491 86.5735 17.3738 83.8218 12.9175 78.3462C8.3826 72.774 5.47084 64.1985 3.48116 51.763L0.518839 52.237C2.52916 64.8015 5.53947 74.0333 10.5906 80.2398C15.7203 86.5428 22.795 89.5411 32.4289 89.9983L32.5711 87.0017ZM1.69098 53.4678C15.9396 56.4675 24.7678 60.0994 29.3054 65.3481C33.6968 70.4276 34.346 77.401 31.0663 88.0588L33.9337 88.9412C37.3278 77.9112 36.9769 69.6346 31.5749 63.3861C26.3191 57.3067 16.5604 53.5325 2.30902 50.5322L1.69098 53.4678ZM33.9193 88.0147C32.043 82.5268 30.1694 78.3538 27.4792 74.5941C24.7891 70.8345 21.3386 67.5663 16.4096 63.8073L14.5904 66.1927C19.3938 69.856 22.5896 72.916 25.0395 76.3398C27.4892 79.7635 29.2495 83.6294 31.0807 88.9853L33.9193 88.0147ZM32.5711 142.002C23.5491 141.574 17.3738 138.822 12.9175 133.346C8.3826 127.774 5.47084 119.199 3.48116 106.763L0.518839 107.237C2.52916 119.801 5.53947 129.033 10.5906 135.24C15.7203 141.543 22.795 144.541 32.4289 144.998L32.5711 142.002ZM1.69098 108.468C15.9396 111.468 24.7678 115.099 29.3054 120.348C33.6968 125.428 34.346 132.401 31.0663 143.059L33.9337 143.941C37.3278 132.911 36.9769 124.635 31.5749 118.386C26.3191 112.307 16.5604 108.532 2.30902 105.532L1.69098 108.468ZM33.9193 143.015C32.043 137.527 30.1694 133.354 27.4792 129.594C24.7891 125.834 21.3386 122.566 16.4096 118.807L14.5904 121.193C19.3938 124.856 22.5896 127.916 25.0395 131.34C27.4892 134.764 29.2495 138.629 31.0807 143.985L33.9193 143.015ZM56.5711 53.9983C66.205 53.5411 73.2797 50.5428 78.4093 44.2398C83.4605 38.0333 86.4708 28.8015 88.4812 16.237L85.5188 15.763C83.5292 28.1985 80.6174 36.774 76.0825 42.3462C71.6262 47.8218 65.4509 50.5735 56.4289 51.0017L56.5711 53.9983ZM86.691 14.5322C72.4396 17.5325 62.6809 21.3067 57.4251 27.3861C52.0231 33.6346 51.6722 41.9112 55.0663 52.9412L57.9337 52.0588C54.654 41.401 55.3032 34.4276 59.6946 29.3481C64.2322 24.0994 73.0604 20.4675 87.309 17.4678L86.691 14.5322ZM57.9193 52.9853C59.7505 47.6294 61.5107 43.7635 63.9605 40.3398C66.4104 36.916 69.6062 33.856 74.4096 30.1927L72.5904 27.8073C67.6614 31.5663 64.2109 34.8345 61.5208 38.5941C58.8306 42.3538 56.957 46.5268 55.0807 52.0147L57.9193 52.9853ZM56.5711 108.998C66.205 108.541 73.2797 105.543 78.4093 99.2398C83.4605 93.0333 86.4708 83.8015 88.4812 71.237L85.5188 70.763C83.5292 83.1985 80.6174 91.774 76.0825 97.3462C71.6262 102.822 65.4509 105.574 56.4289 106.002L56.5711 108.998ZM86.691 69.5322C72.4396 72.5325 62.6809 76.3067 57.4251 82.3861C52.0231 88.6346 51.6722 96.9112 55.0663 107.941L57.9337 107.059C54.654 96.401 55.3032 89.4276 59.6946 84.3481C64.2322 79.0994 73.0604 75.4675 87.309 72.4678L86.691 69.5322ZM57.9193 107.985C59.7505 102.629 61.5107 98.7635 63.9605 95.3398C66.4104 91.916 69.6062 88.856 74.4096 85.1927L72.5904 82.8073C67.6614 86.5663 64.2109 89.8345 61.5208 93.5941C58.8306 97.3538 56.957 101.527 55.0807 107.015L57.9193 107.985ZM56.5713 163.998C66.2052 163.541 73.2799 160.543 78.4096 154.24C83.4608 148.033 86.4711 138.801 88.4814 126.237L85.5191 125.763C83.5294 138.199 80.6176 146.774 76.0828 152.346C71.6264 157.822 65.4511 160.574 56.4291 161.002L56.5713 163.998ZM86.6912 124.532C72.4398 127.532 62.6811 131.307 57.4253 137.386C52.0233 143.635 51.6724 151.911 55.0666 162.941L57.9339 162.059C54.6543 151.401 55.3034 144.428 59.6948 139.348C64.2325 134.099 73.0606 130.468 87.3092 127.468L86.6912 124.532ZM57.9196 162.985C59.7507 157.629 61.511 153.764 63.9608 150.34C66.4107 146.916 69.6064 143.856 74.4099 140.193L72.5906 137.807C67.6616 141.566 64.2111 144.834 61.521 148.594C58.8308 152.354 56.9572 156.527 55.0809 162.015L57.9196 162.985ZM33.5711 37.0017C24.5491 36.5735 18.3738 33.8218 13.9175 28.3462C9.3826 22.774 6.47084 14.1985 4.48116 1.76301L1.51884 2.23699C3.52916 14.8015 6.53947 24.0333 11.5906 30.2398C16.7203 36.5428 23.795 39.5411 33.4289 39.9983L33.5711 37.0017ZM2.69098 3.46782C16.9396 6.46753 25.7678 10.0994 30.3054 15.3481C34.6968 20.4276 35.346 27.401 32.0663 38.0588L34.9337 38.9412C38.3278 27.9112 37.9769 19.6346 32.5749 13.3861C27.3191 7.30671 17.5604 3.53247 3.30902 0.532175L2.69098 3.46782ZM34.9193 38.0147C33.043 32.5268 31.1694 28.3538 28.4792 24.5941C25.7891 20.8345 22.3386 17.5663 17.4096 13.8073L15.5904 16.1927C20.3938 19.856 23.5896 22.916 26.0395 26.3398C28.4892 29.7635 30.2495 33.6294 32.0807 38.9853L34.9193 38.0147Z" fill="black"/>
</svg>
