<svg width="268" height="254" viewBox="0 0 268 254" fill="none" xmlns="http://www.w3.org/2000/svg">
<rect width="267" height="134" fill="#31B9F5"/>
<rect y="134" width="267" height="119" fill="#0CCF83"/>
<path d="M1.5 134.5H19M266.5 134.5H240.5M19 134.5L1.5 176M19 134.5H46.5M46.5 134.5L9.5 252M46.5 134.5H83.5M83.5 134.5L67 251.5M83.5 134.5H192M192 134.5L220 251.5M192 134.5H214.5M214.5 134.5L264.5 251.5M214.5 134.5H240.5M240.5 134.5L266.5 179.5M1.5 148.5H266.5M1.5 168.5H266.5M1.5 199.5H266.5M1.5 230H266.5" stroke="black" stroke-width="3" stroke-linecap="round" stroke-linejoin="round"/>
<path d="M218 188.5C222.833 206.333 231.2 243.9 226 251.5H195H94H43C39.3334 232.5 35.1 193.9 47.5 191.5V185.5C52.0529 184.199 61.2559 182.066 68.5 181.762C67.8333 179.842 68.7 174.5 77.5 168.5C86.3 162.5 93.8333 161.667 96.5 162H195L214.5 174L218 188.5Z" fill="#FE5B38"/>
<path d="M47.5 191.5C35.1 193.9 39.3334 232.5 43 251.5H94M47.5 191.5C59.9 189.1 66.6667 188.5 68.5 188.5M47.5 191.5V185.5C52.0529 184.199 61.2559 182.066 68.5 181.762M74 188.5C76.3333 189.167 81 188.5 83 199.5L94 251.5M94 251.5H195M74 190V182C72.4196 181.737 70.5373 181.677 68.5 181.762M68.5 181.762C67.8333 179.842 68.7 174.5 77.5 168.5C86.3 162.5 93.8333 161.667 96.5 162H195L214.5 174L218 188.5C222.833 206.333 231.2 243.9 226 251.5H195M195 251.5C196.333 243.167 194.2 223.8 191 213" stroke="black" stroke-width="3" stroke-linecap="round" stroke-linejoin="round"/>
<path d="M155.5 198.5L141 178.5L176 168.5L155.5 198.5Z" fill="white" stroke="black" stroke-width="3" stroke-linecap="round" stroke-linejoin="round"/>
<path d="M122.5 200L137 180L102 170L122.5 200Z" fill="white" stroke="black" stroke-width="3" stroke-linecap="round" stroke-linejoin="round"/>
<path d="M77 167.333C81 155.333 92.3333 151.999 97.5 151.833C68.9999 100.665 92.6625 56.7746 97.5 49.7685C112 28.7685 151 6.23147 183 53C208.38 90.0928 192.87 132.888 180.554 151.833C182.108 151.464 183.597 151.124 185 150.833C215.8 144.433 220.167 176.499 218.5 193.333C215.5 178.333 196.5 158.833 173 170.333C161.68 175.872 150.912 178.825 141 179.848C139.568 180.162 138.093 180.264 136.588 180.181C121.444 180.899 108.522 177.103 99 171.333C88.5 163.833 82.1667 165.166 77 167.333Z" fill="#FFBD36"/>
<path d="M97.5 151.833C92.3333 151.999 81 155.333 77 167.333C82.1667 165.166 88.5 163.833 99 171.333C109.434 177.656 123.95 181.608 141 179.848M97.5 151.833C68.9999 100.665 92.6625 56.7746 97.5 49.7685C112 28.7685 151 6.23147 183 53C208.38 90.0928 192.87 132.888 180.554 151.833M97.5 151.833C105.667 162.56 125.8 183.182 141 179.848M132.5 140C131.389 165.562 161.071 156.454 180.554 151.833M180.554 151.833C182.108 151.464 183.597 151.124 185 150.833C215.8 144.433 220.167 176.499 218.5 193.333C215.5 178.333 196.5 158.833 173 170.333C161.68 175.872 150.912 178.825 141 179.848" stroke="black" stroke-width="3" stroke-linejoin="round"/>
<path d="M40.5 149.5C33.3 159.9 44.1667 176.5 50.5 183.5H68.5L76.5 171C78 167 78 166.668 78 158C78 155.5 76.3333 148.5 75.5 147.5L80 131C83.2 113.4 77.3333 122 74 128.5L67.5 142.5L59.5 123.5C51.9 109.5 52.6667 117.333 53.5 123.5L58 146C54.4 140.8 50.1786 144.833 48.2679 147.5L48 146C44.8 144.8 41.6667 147.833 40.5 149.5Z" fill="white"/>
<path d="M42 156.5L45.5 162.5C51.5 170.5 51.3333 164.333 50.5 160L48.2679 147.5M48.2679 147.5L48 146C44.8 144.8 41.6667 147.833 40.5 149.5C33.3 159.9 44.1667 176.5 50.5 183.5H68.5L76.5 171C78 167 78 166.668 78 158C78 155.5 76.3333 148.5 75.5 147.5L80 131C83.2 113.4 77.3333 122 74 128.5L67.5 142.5L59.5 123.5C51.9 109.5 52.6667 117.333 53.5 123.5L58 146M48.2679 147.5C50.1786 144.833 54.4 140.8 58 146M58 146V161.5C57.6667 164.833 56 169.7 52 162.5M71.5 149.5C64 145.833 52.9 142.4 68.5 158" stroke="black" stroke-width="3" stroke-linecap="round" stroke-linejoin="round"/>
<path d="M170.5 101.5C140 174 94.0002 124 96.0001 97.5C92.5001 90 103.486 66.1851 112.778 55.5C122.778 44 130.278 36 151.778 53.5C168.978 67.5 171.167 91.1667 170.5 101.5Z" fill="#FFF3EA" stroke="black" stroke-width="3" stroke-linejoin="round"/>
<path d="M171.5 91C171.5 98.8469 164.284 105.5 155 105.5C145.716 105.5 138.5 98.8469 138.5 91C138.5 83.153 145.716 76.5 155 76.5C164.284 76.5 171.5 83.153 171.5 91Z" stroke="black" stroke-width="3"/>
<path d="M127.5 90C127.5 97.8469 120.284 104.5 111 104.5C101.716 104.5 94.5 97.8469 94.5 90C94.5 82.153 101.716 75.5 111 75.5C120.284 75.5 127.5 82.153 127.5 90Z" stroke="black" stroke-width="3"/>
<ellipse cx="114.5" cy="90.4999" rx="4.5" ry="6.5" fill="black"/>
<ellipse cx="152.5" cy="91.5" rx="4.5" ry="6.5" fill="black"/>
<path d="M121.5 85.5C119.5 82.8334 113.8 78.6 107 83M145.5 85.5C147.667 82.8334 154.2 80.1 161 84.5" stroke="black" stroke-width="3" stroke-linecap="round" stroke-linejoin="round"/>
<path d="M127 94C128.667 93 133.3 91.6 138.5 94" stroke="black" stroke-width="3" stroke-linejoin="round"/>
<path d="M130 97.5C129.667 99 128.5 101.5 126 103C123.288 104.627 128.5 108 130 107.5M126 122.5H130M142.5 75C145.667 72.1666 151.5 67.5 161.5 73M124 75C120.5 71.5 112.6 67.4 105 73" stroke="black" stroke-width="3" stroke-linecap="round" stroke-linejoin="round"/>
</svg>
