<svg width="90" height="90" viewBox="0 0 90 90" fill="none" xmlns="http://www.w3.org/2000/svg">
<path d="M39 70L35 74L16 55L20 51L29.5 55L51 30L17.5 5.5L21 2L64.5 15C99.3 -11.4 86 11 75 25.5L88 69L84.5 72.5L60 39L35 60.5L39 70Z" fill="#FFBD36"/>
<path d="M70.5 64.5L64.5 70.5M75 70.5L66.5 79M80.5 77L69 88.5M25.5 20.5L19.5 26.5M19 15.5L10.5 24M13.5 10L2 21.5M16 55L35 74L39 70L35 60.5L60 39L84.5 72.5L88 69L75 25.5C86 11 99.3 -11.4 64.5 15L21 2L17.5 5.5L51 30L29.5 55L20 51L16 55Z" stroke="black" stroke-width="3" stroke-linejoin="round"/>
</svg>
