<svg width="404" height="125" viewBox="0 0 404 125" fill="none" xmlns="http://www.w3.org/2000/svg">
<path d="M2 107H402V125H2V107Z" fill="#0CCF83"/>
<path d="M2 0H402V107H2V0Z" fill="#31B9F5"/>
<path d="M2 70H85.5H106V107H2V70Z" fill="#4D82C6"/>
<path d="M169.5 53C161.5 58.6 150.667 51.5 147.5 49C161 34 173.5 13.5 204 46.5C201.6 53.7 190.5 54.3333 187 52.5C184.5 50.3333 177.5 47.4 169.5 53Z" fill="white" stroke="black" stroke-width="3"/>
<path d="M366 37C335 13 329.5 7.5 291.5 35C294 42.3334 298.9 53.8 316.5 43C338.5 29.5 339.5 49 350 46.5C354.555 45.4156 361.833 39.1667 366 37Z" fill="white" stroke="black" stroke-width="3"/>
<path d="M402 107H1.5C11.8333 99.0001 37.4 84.1001 57 88.5001C81.5 94.0001 89.7549 43.433 121.5 56.5001C134.106 61.6889 143.855 54.4291 147.5 49.0001C150.667 51.5001 161.5 58.6001 169.5 53.0001C177.5 47.4001 184.5 50.3334 187 52.5001C190.5 54.3334 201.6 53.7001 204 46.5001C226.5 70.5001 247.18 67.0739 291.5 35.0001C294 42.3334 298.9 53.8001 316.5 43.0001C338.5 29.5001 339.5 49.0001 350 46.5001C354.555 45.4156 361.833 39.1667 366 37.0001L402 61.0001V107Z" fill="#D39BC2"/>
<path d="M1.5 107L0.58174 105.814C0.0745517 106.207 -0.12684 106.878 0.0806465 107.485C0.288133 108.092 0.858577 108.5 1.5 108.5V107ZM402 107V108.5H403.5V107H402ZM57 88.5001L56.6714 89.9636L57 88.5001ZM121.5 56.5001L122.071 55.113L121.5 56.5001ZM204 46.5001L205.094 45.4742L203.373 43.638L202.577 46.0257L204 46.5001ZM291.5 35.0001L292.92 34.5161L292.265 32.595L290.621 33.7849L291.5 35.0001ZM366 37.0001L366.832 35.752L366.094 35.2603L365.308 35.6692L366 37.0001ZM402 61.0001H403.5V60.1973L402.832 59.752L402 61.0001ZM147.5 49.0001L148.429 47.8227L147.158 46.8188L146.255 48.164L147.5 49.0001ZM187 52.5001L186.018 53.6336L186.149 53.7479L186.304 53.8288L187 52.5001ZM316.5 43.0001L317.285 44.2785L316.5 43.0001ZM350 46.5001L349.653 45.0409L350 46.5001ZM1.5 108.5H402V105.5H1.5V108.5ZM2.41826 108.186C7.49262 104.258 16.3523 98.6046 26.3464 94.487C36.3775 90.3541 47.32 87.8643 56.6714 89.9636L57.3286 87.0365C47.08 84.7358 35.4392 87.496 25.2036 91.7132C14.931 95.9455 5.84071 101.743 0.58174 105.814L2.41826 108.186ZM56.6714 89.9636C63.3975 91.4736 68.9636 89.0832 73.8856 85.1552C78.7359 81.2844 83.1895 75.7259 87.6585 70.6541C92.2055 65.4939 96.8121 60.7756 102.147 58.1018C107.379 55.4796 113.393 54.7853 120.929 57.8872L122.071 55.113C113.734 51.6813 106.812 52.4077 100.803 55.4198C94.8956 58.3804 89.955 63.5101 85.4077 68.6707C80.7823 73.9199 76.5944 79.1552 72.0143 82.8104C67.5057 86.4085 62.8525 88.2766 57.3286 87.0365L56.6714 89.9636ZM202.906 47.526C214.365 59.7497 225.614 65.2172 239.772 63.2637C253.702 61.3418 270.22 52.2514 292.379 36.2152L290.621 33.7849C268.46 49.8225 252.478 58.4821 239.362 60.2918C226.476 62.0698 216.135 57.2504 205.094 45.4742L202.906 47.526ZM365.168 38.2481L401.168 62.2481L402.832 59.752L366.832 35.752L365.168 38.2481ZM400.5 61.0001V107H403.5V61.0001H400.5ZM146.571 50.1774C148.231 51.4881 151.883 53.9967 156.207 55.4585C160.519 56.9162 165.797 57.4228 170.36 54.2289L168.64 51.7712C165.203 54.1773 161.065 53.9339 157.168 52.6166C153.284 51.3034 149.936 49.012 148.429 47.8227L146.571 50.1774ZM170.36 54.2289C177.701 49.09 183.944 51.8364 186.018 53.6336L187.982 51.3665C185.056 48.8304 177.299 45.7101 168.64 51.7712L170.36 54.2289ZM186.304 53.8288C187.447 54.4275 189.038 54.7546 190.713 54.8463C192.421 54.9397 194.356 54.7963 196.257 54.3474C200.004 53.463 203.986 51.2844 205.423 46.9744L202.577 46.0257C201.614 48.9157 198.846 50.6538 195.568 51.4277C193.957 51.808 192.31 51.9292 190.877 51.8507C189.412 51.7705 188.303 51.4893 187.696 51.1713L186.304 53.8288ZM146.255 48.164C142.86 53.2209 133.8 59.9408 122.071 55.113L120.929 57.8872C134.412 63.437 144.851 55.6372 148.745 49.8362L146.255 48.164ZM290.08 35.4841C291.314 39.1033 293.293 44.3055 297.519 47.0571C301.963 49.9501 308.264 49.8139 317.285 44.2785L315.715 41.7216C307.136 46.9862 302.187 46.5167 299.156 44.543C295.907 42.428 294.186 38.2301 292.92 34.5161L290.08 35.4841ZM317.285 44.2785C322.658 40.9814 326.589 39.8003 329.588 39.7024C332.54 39.606 334.752 40.554 336.73 41.8731C337.739 42.5454 338.673 43.3048 339.638 44.093C340.581 44.8641 341.57 45.6779 342.602 46.3606C344.728 47.766 347.185 48.7122 350.347 47.9593L349.653 45.0409C347.565 45.5379 345.96 44.9841 344.257 43.8582C343.376 43.2754 342.509 42.5657 341.536 41.7704C340.584 40.9922 339.542 40.1422 338.395 39.377C336.061 37.8211 333.241 36.5816 329.49 36.704C325.786 36.8249 321.342 38.2687 315.715 41.7216L317.285 44.2785ZM350.347 47.9593C352.938 47.3425 356.124 45.3348 358.986 43.3983C361.994 41.3636 364.711 39.361 366.692 38.3309L365.308 35.6692C363.122 36.8058 360.117 39.011 357.305 40.9135C354.348 42.9142 351.617 44.5733 349.653 45.0409L350.347 47.9593Z" fill="black"/>
<circle cx="52" cy="32" r="15.5" fill="#FFBD36" stroke="black" stroke-width="3"/>
</svg>
